<?xml version="1.0" encoding="UTF-8"?>
<svg version="1.1" xmlns="http://www.w3.org/2000/svg" width="256" height="144">
<path d="M0 0 C8.91 0 17.82 0 27 0 C27 0.66 27 1.32 27 2 C28.71509766 2.07347656 28.71509766 2.07347656 30.46484375 2.1484375 C31.95575473 2.22345189 33.44663892 2.29900028 34.9375 2.375 C36.06961914 2.42140625 36.06961914 2.42140625 37.22460938 2.46875 C39.15507395 2.5726315 41.07942081 2.77895614 43 3 C43.495 3.99 43.495 3.99 44 5 C46.34038186 6.13102526 46.34038186 6.13102526 49.0625 7.125 C50.44115234 7.65480469 50.44115234 7.65480469 51.84765625 8.1953125 C52.55792969 8.46085938 53.26820312 8.72640625 54 9 C54 9.66 54 10.32 54 11 C55.3303125 11.0928125 55.3303125 11.0928125 56.6875 11.1875 C60.81660573 12.20029952 62.13517071 13.92030851 65 17 C65.94875 17.598125 66.8975 18.19625 67.875 18.8125 C74.70648907 23.59454235 79.91211559 30.78256306 84 38 C84 38.66 84 39.32 84 40 C81.03 40.495 81.03 40.495 78 41 C77.49210938 40.26394531 76.98421875 39.52789062 76.4609375 38.76953125 C72.69081203 33.42499008 69.26768526 28.8880534 64 25 C63.01 24.01 63.01 24.01 62 23 C60.84915372 22.10429417 59.68091964 21.23066635 58.5 20.375 C57.8915625 19.92898437 57.283125 19.48296875 56.65625 19.0234375 C55.04092641 17.82477876 55.04092641 17.82477876 53 18 C53 17.34 53 16.68 53 16 C52.175 15.731875 51.35 15.46375 50.5 15.1875 C47.27568014 14.09353433 44.10358041 12.91363658 40.9296875 11.68359375 C38.97256976 10.99028281 37.02090645 10.47154484 35 10 C35 9.34 35 8.68 35 8 C31.04 8 27.08 8 23 8 C23 7.34 23 6.68 23 6 C12.65136625 6.50877174 2.31822159 7.03202312 -8 8 C-8 8.66 -8 9.32 -8 10 C-9.19625 10.350625 -10.3925 10.70125 -11.625 11.0625 C-16.08897293 12.5433714 -20.23800812 14.46708232 -24.4375 16.5625 C-25.05254395 16.86744385 -25.66758789 17.1723877 -26.30126953 17.48657227 C-28.8845386 18.79830447 -30.93787988 19.93787988 -33 22 C-33.66 22.12375 -34.32 22.2475 -35 22.375 C-37.15090709 22.79085458 -37.15090709 22.79085458 -37.9375 24.75 C-38.4634375 25.86375 -38.4634375 25.86375 -39 27 C-40.66666667 28.66666667 -42.33333333 30.33333333 -44 32 C-55.75680214 45.82971199 -59.15792609 60.82845754 -58.20263672 78.60839844 C-57.08011462 91.85686412 -50.45637641 103.03110098 -42 113 C-40.63875 114.0828125 -40.63875 114.0828125 -39.25 115.1875 C-38.5075 115.785625 -37.765 116.38375 -37 117 C-37 117.66 -37 118.32 -37 119 C-36.2575 119.0825 -35.515 119.165 -34.75 119.25 C-32 120 -32 120 -30.22265625 121.8515625 C-24.56201505 127.32318405 -15.60313446 130.2318292 -8 132 C-8 132.66 -8 133.32 -8 134 C6.25079613 135.59290336 20.74920387 135.59290336 35 134 C35 133.34 35 132.68 35 132 C35.54785156 131.87625 36.09570312 131.7525 36.66015625 131.625 C42.53155883 130.09748063 47.67817703 127.79014563 53 124.9375 C53.6587915 124.58494141 54.31758301 124.23238281 54.99633789 123.86914062 C57.62853842 122.42698891 59.86700949 121.13299051 62 119 C63.06207056 118.14529942 64.12462749 117.29120309 65.1875 116.4375 C70.36294607 112.04161903 74.2510449 106.62343264 78 101 C80.97 101.495 80.97 101.495 84 102 C82.40171624 107.11450802 79.26730042 110.85650623 76 115 C74.88625 116.5159375 74.88625 116.5159375 73.75 118.0625 C70.79291364 121.61294909 66.9419653 123.96711155 63.109375 126.484375 C60.89094667 127.83026185 60.89094667 127.83026185 60 130 C56.9375 130.625 56.9375 130.625 54 131 C54 131.66 54 132.32 54 133 C52.23002526 133.81436868 50.45898848 134.6264294 48.6875 135.4375 C47.70136719 135.88996094 46.71523437 136.34242188 45.69921875 136.80859375 C41.45329671 138.68269827 37.92562914 139.24277818 33.3125 139.5625 C32.13300781 139.64628906 30.95351562 139.73007813 29.73828125 139.81640625 C28.83464844 139.87699219 27.93101563 139.93757812 27 140 C27 140.66 27 141.32 27 142 C22.81255925 142.05840224 18.62522435 142.09373166 14.4375 142.125 C13.25607422 142.14175781 12.07464844 142.15851563 10.85742188 142.17578125 C4.84612433 142.20945799 -0.28315128 142.06402354 -6 140 C-7.26457031 139.63261719 -8.52914062 139.26523438 -9.83203125 138.88671875 C-17.61556062 136.56306084 -24.88858706 134.01726452 -32 130 C-32 129.34 -32 128.68 -32 128 C-32.70382813 127.773125 -33.40765625 127.54625 -34.1328125 127.3125 C-37.5847685 125.73231306 -40.1294981 123.56208725 -42.875 121 C-43.66608154 120.26414673 -43.66608154 120.26414673 -44.47314453 119.51342773 C-57.19997205 107.36331513 -64.87118456 91.22232083 -65.35180664 73.63720703 C-65.53428154 52.88885018 -58.30578776 36.57479435 -43.9375 21.6875 C-36.03517964 14 -36.03517964 14 -32 14 C-32 13.34 -32 12.68 -32 12 C-10.04514242 1.18552899 -10.04514242 1.18552899 0 2 C0 1.34 0 0.68 0 0 Z " fill="#0DA348" transform="translate(67,1)"/>
<path d="M0 0 C0.69867188 -0.00386719 1.39734375 -0.00773437 2.1171875 -0.01171875 C5.87074298 -0.00463657 9.35151145 0.22712977 13 1.125 C13 1.785 13 2.445 13 3.125 C13.78375 3.393125 14.5675 3.66125 15.375 3.9375 C18 5.125 18 5.125 20 8.125 C20.30078125 10.17578125 20.30078125 10.17578125 20.3125 12.4375 C20.32925781 13.17613281 20.34601563 13.91476563 20.36328125 14.67578125 C19.88823306 17.87852549 18.5435921 20.30254795 17 23.125 C16.2479126 23.11976318 15.4958252 23.11452637 14.72094727 23.10913086 C11.33480658 23.08842773 7.94867916 23.07536123 4.5625 23.0625 C3.37849609 23.05412109 2.19449219 23.04574219 0.97460938 23.03710938 C-0.15009766 23.03388672 -1.27480469 23.03066406 -2.43359375 23.02734375 C-3.47572021 23.02210693 -4.51784668 23.01687012 -5.59155273 23.01147461 C-7.95128747 22.85194444 -7.95128747 22.85194444 -9 24.125 C-9.07148199 25.47743917 -9.08399454 26.83334367 -9.0625 28.1875 C-9.041875 29.486875 -9.02125 30.78625 -9 32.125 C-7.88625 31.7125 -6.7725 31.3 -5.625 30.875 C-4.99851562 30.64296875 -4.37203125 30.4109375 -3.7265625 30.171875 C-1.51314919 29.03954995 -1.51314919 29.03954995 0 25.125 C5.28 25.125 10.56 25.125 16 25.125 C15.125 33.875 15.125 33.875 14 36.125 C4.13543653 41.04551018 -8.35856139 41.69802404 -18.9609375 38.94140625 C-24.04743417 36.90485873 -27.22153287 33.81167878 -29.5 28.875 C-30.54929717 21.00527126 -29.57643548 14.72504399 -25.38671875 7.90625 C-22.25792592 3.88729358 -17.78010761 3.79199176 -13 3.125 C-13 2.465 -13 1.805 -13 1.125 C-8.66349094 0.05781222 -4.43884995 -0.02456928 0 0 Z M-3 8.125 C-5.71595986 11.2790179 -6.96846241 12.99884964 -8 17.125 C-5.03 17.125 -2.06 17.125 1 17.125 C2.35439668 14.41620665 2.06501451 12.11566732 2 9.125 C0.35 8.795 -1.3 8.465 -3 8.125 Z " fill="#0DA348" transform="translate(120,59.875)"/>
<path d="M0 0 C1.175625 -0.00257812 2.35125 -0.00515625 3.5625 -0.0078125 C6.79725504 0.11716667 9.82468717 0.5151076 13 1.125 C13 1.785 13 2.445 13 3.125 C14.32 3.125 15.64 3.125 17 3.125 C16.125 10.75 16.125 10.75 15 14.125 C10.71 14.125 6.42 14.125 2 14.125 C1.67 12.475 1.34 10.825 1 9.125 C-0.32 9.125 -1.64 9.125 -3 9.125 C-3.33 10.115 -3.66 11.105 -4 12.125 C-1.41968696 14.70531304 -0.26384079 14.34555078 3.3125 14.4375 C7.39493474 14.73673605 8.6995973 14.89816531 12.0625 17.4375 C15.25490491 21.86567455 16.67225632 24.522864 16 30.125 C14.04984656 34.10331302 12.59080407 35.80172985 8.6875 37.9375 C-2.01795355 41.38501894 -16.23889012 41.85153249 -27 38.125 C-29 35.125 -29 35.125 -28.7578125 33.08203125 C-28.171875 31.09635417 -27.5859375 29.11067708 -27 27.125 C-22.38 27.125 -17.76 27.125 -13 27.125 C-12.67 28.445 -12.34 29.765 -12 31.125 C-10.02 31.125 -8.04 31.125 -6 31.125 C-6.33 29.805 -6.66 28.485 -7 27.125 C-7.80824219 26.97804688 -8.61648437 26.83109375 -9.44921875 26.6796875 C-19.27674606 24.61697369 -19.27674606 24.61697369 -22.25 21.375 C-24.3558102 17.46420963 -24.69209051 15.5082399 -24 11.125 C-22.99980693 8.16560521 -22.00116047 6.69059034 -20 4.125 C-16.25 3.1875 -16.25 3.1875 -13 3.125 C-13 2.465 -13 1.805 -13 1.125 C-8.61443519 0.28265066 -4.4635887 -0.00978857 0 0 Z " fill="#0EA348" transform="translate(71,59.875)"/>
<path d="M0 0 C0.70189453 0.00902344 1.40378906 0.01804688 2.12695312 0.02734375 C3.85561525 0.05086296 5.58410145 0.08673287 7.3125 0.125 C6.69747817 6.95755595 5.44175567 13.4093129 3.80859375 20.06640625 C3.44448143 21.57883156 3.44448143 21.57883156 3.07301331 23.12181091 C2.30382693 26.31164522 1.52704396 29.49957173 0.75 32.6875 C0.22410443 34.86250818 -0.30129121 37.0376373 -0.82617188 39.21289062 C-2.10657948 44.51859229 -3.39726409 49.82164153 -4.6875 55.125 C-11.9475 55.125 -19.2075 55.125 -26.6875 55.125 C-25.79410975 49.68344118 -24.75617487 44.3201208 -23.44140625 38.96484375 C-23.21606201 38.04662842 -22.99071777 37.12841309 -22.75854492 36.18237305 C-22.30101275 34.33699865 -21.83653034 32.49333105 -21.36450195 30.65161133 C-20.1268326 25.65978616 -19.4204964 21.26833248 -19.6875 16.125 C-22.3275 16.125 -24.9675 16.125 -27.6875 16.125 C-27.0275 13.815 -26.3675 11.505 -25.6875 9.125 C-24.97722656 9.00382812 -24.26695312 8.88265625 -23.53515625 8.7578125 C-22.61605469 8.59023438 -21.69695312 8.42265625 -20.75 8.25 C-19.83347656 8.08757813 -18.91695312 7.92515625 -17.97265625 7.7578125 C-17.21855469 7.54898438 -16.46445313 7.34015625 -15.6875 7.125 C-15.3575 6.465 -15.0275 5.805 -14.6875 5.125 C-12.625 4.5 -12.625 4.5 -10.6875 4.125 C-10.6875 3.465 -10.6875 2.805 -10.6875 2.125 C-7.00662647 -0.32891569 -4.24394412 -0.10302759 0 0 Z M-18.6875 16.125 C-17.6875 18.125 -17.6875 18.125 -17.6875 18.125 Z " fill="#0EA448" transform="translate(246.6875,43.875)"/>
<path d="M0 0 C1.05960938 0.00676758 1.05960938 0.00676758 2.140625 0.01367188 C3.88545275 0.02546125 5.630237 0.04339676 7.375 0.0625 C6.76595747 6.81358157 5.53983502 13.17713598 3.90625 19.75 C3.66588013 20.73371582 3.42551025 21.71743164 3.17785645 22.73095703 C2.67288038 24.79217079 2.16515074 26.85271174 1.65478516 28.91259766 C0.87082754 32.07935442 0.09690341 35.24844464 -0.67578125 38.41796875 C-1.16868447 40.42462329 -1.66215357 42.43113893 -2.15625 44.4375 C-2.38856323 45.38842529 -2.62087646 46.33935059 -2.86022949 47.3190918 C-3.07715454 48.19090088 -3.29407959 49.06270996 -3.51757812 49.9609375 C-3.70775513 50.73099121 -3.89793213 51.50104492 -4.09387207 52.29443359 C-4.625 54.0625 -4.625 54.0625 -5.625 55.0625 C-7.18672745 55.14935603 -8.75229344 55.16952219 -10.31640625 55.16015625 C-11.26064453 55.15693359 -12.20488281 55.15371094 -13.17773438 55.15039062 C-14.17095703 55.14201172 -15.16417969 55.13363281 -16.1875 55.125 C-17.18458984 55.12048828 -18.18167969 55.11597656 -19.20898438 55.11132812 C-21.68104849 55.09950007 -24.15299518 55.08301849 -26.625 55.0625 C-25.33151644 46.57778403 -23.60160718 38.27253664 -21.5625 29.9375 C-21.29373047 28.81601563 -21.02496094 27.69453125 -20.74804688 26.5390625 C-18.76160897 18.33571794 -18.76160897 18.33571794 -17.625 16.0625 C-20.925 16.0625 -24.225 16.0625 -27.625 16.0625 C-26.965 13.7525 -26.305 11.4425 -25.625 9.0625 C-22.325 8.4025 -19.025 7.7425 -15.625 7.0625 C-15.625 6.4025 -15.625 5.7425 -15.625 5.0625 C-13.975 4.7325 -12.325 4.4025 -10.625 4.0625 C-10.295 3.0725 -9.965 2.0825 -9.625 1.0625 C-6.55966836 -0.47016582 -3.35745728 -0.04026471 0 0 Z " fill="#0EA448" transform="translate(209.625,43.9375)"/>
<path d="M0 0 C-0.33 3.3 -0.66 6.6 -1 10 C0.65 10 2.3 10 4 10 C5.125 14.75 5.125 14.75 4 17 C1.67843403 17.40729228 -0.6568787 17.74438677 -3 18 C-4.94210433 25.47941368 -6.39363688 32.25847464 -6 40 C-4.68 40.33 -3.36 40.66 -2 41 C-2.33 43.31 -2.66 45.62 -3 48 C-6.4854993 49.06265223 -9.74154207 49.166326 -13.375 49.1875 C-14.47585937 49.20167969 -15.57671875 49.21585938 -16.7109375 49.23046875 C-20.17202793 48.98794579 -22.8196209 48.37938633 -26 47 C-29.26785198 42.09822203 -28.5877217 36.21220307 -27.546875 30.5234375 C-27.1901346 29.04041671 -26.82339671 27.55975474 -26.4453125 26.08203125 C-25.78631839 23.00094473 -25.8664033 20.13952239 -26 17 C-27.65 17 -29.3 17 -31 17 C-30.6875 14.125 -30.6875 14.125 -30 11 C-26.73142011 8.82094674 -23.78213852 7.90626189 -20.05859375 6.78125 C-17.32373704 5.74335371 -16.01734814 4.01902699 -14.0625 1.875 C-9.51436286 -0.90957376 -5.20297321 -0.32803334 0 0 Z M-25 17 C-24 20 -24 20 -24 20 Z M-8 35 C-8 36.65 -8 38.3 -8 40 C-7.67 40 -7.34 40 -7 40 C-7 38.35 -7 36.7 -7 35 C-7.33 35 -7.66 35 -8 35 Z " fill="#0EA448" transform="translate(174,51)"/>
<path d="M0 0 C6.6 0 13.2 0 20 0 C20 0.33 20 0.66 20 1 C13.4 1 6.8 1 0 1 C0 0.67 0 0.34 0 0 Z " fill="#069B45" transform="translate(221,100)"/>
<path d="M0 0 C6.6 0 13.2 0 20 0 C20 0.33 20 0.66 20 1 C13.4 1 6.8 1 0 1 C0 0.67 0 0.34 0 0 Z " fill="#069B45" transform="translate(184,100)"/>
<path d="M0 0 C0.33 0 0.66 0 1 0 C1 5.94 1 11.88 1 18 C0.67 18 0.34 18 0 18 C0 12.06 0 6.12 0 0 Z " fill="#069B45" transform="translate(0,63)"/>
<path d="M0 0 C0.33 0 0.66 0 1 0 C1 2.31 1 4.62 1 7 C0.67 7 0.34 7 0 7 C0 4.69 0 2.38 0 0 Z " fill="#069B45" transform="translate(144,86)"/>
<path d="M0 0 C0.33 0 0.66 0 1 0 C1 1.65 1 3.3 1 5 C0.67 5 0.34 5 0 5 C0 3.35 0 1.7 0 0 Z " fill="#069B45" transform="translate(111,85)"/>
<path d="M0 0 C0.33 0 0.66 0 1 0 C1 1.65 1 3.3 1 5 C0.67 5 0.34 5 0 5 C0 3.35 0 1.7 0 0 Z " fill="#069B45" transform="translate(88,84)"/>
<path d="M0 0 C1 4 1 4 1 4 Z " fill="#069B45" transform="translate(59,87)"/>
<path d="M0 0 C3 1 3 1 3 1 Z " fill="#069B45" transform="translate(122,100)"/>
<path d="M0 0 C3 1 3 1 3 1 Z " fill="#069B45" transform="translate(103,100)"/>
<path d="M0 0 C3 1 3 1 3 1 Z " fill="#069B45" transform="translate(72,100)"/>
<path d="M0 0 C3 1 3 1 3 1 Z " fill="#069B45" transform="translate(50,100)"/>
<path d="" fill="#069B45" transform="translate(0,0)"/>
<path d="M0 0 C3 1 3 1 3 1 Z " fill="#069B45" transform="translate(52,85)"/>
<path d="" fill="#069B45" transform="translate(0,0)"/>
<path d="" fill="#069B45" transform="translate(0,0)"/>
<path d="" fill="#069B45" transform="translate(0,0)"/>
<path d="" fill="#069B45" transform="translate(0,0)"/>
<path d="" fill="#069B45" transform="translate(0,0)"/>
<path d="" fill="#069B45" transform="translate(0,0)"/>
<path d="M0 0 C2 1 2 1 2 1 Z " fill="#069B45" transform="translate(52,139)"/>
<path d="M0 0 C2 1 2 1 2 1 Z " fill="#069B45" transform="translate(45,127)"/>
<path d="M0 0 C2 1 2 1 2 1 Z " fill="#069B45" transform="translate(151,100)"/>
<path d="M0 0 C2 1 2 1 2 1 Z " fill="#069B45" transform="translate(146,100)"/>
<path d="" fill="#069B45" transform="translate(0,0)"/>
<path d="" fill="#069B45" transform="translate(0,0)"/>
<path d="" fill="#069B45" transform="translate(0,0)"/>
<path d="" fill="#069B45" transform="translate(0,0)"/>
<path d="" fill="#069B45" transform="translate(0,0)"/>
<path d="" fill="#069B45" transform="translate(0,0)"/>
<path d="" fill="#069B45" transform="translate(0,0)"/>
<path d="" fill="#069B45" transform="translate(0,0)"/>
<path d="" fill="#069B45" transform="translate(0,0)"/>
<path d="" fill="#069B45" transform="translate(0,0)"/>
<path d="" fill="#069B45" transform="translate(0,0)"/>
<path d="" fill="#069B45" transform="translate(0,0)"/>
<path d="" fill="#069B45" transform="translate(0,0)"/>
<path d="" fill="#069B45" transform="translate(0,0)"/>
<path d="" fill="#069B45" transform="translate(0,0)"/>
<path d="" fill="#069B45" transform="translate(0,0)"/>
<path d="M0 0 C2 1 2 1 2 1 Z " fill="#069B45" transform="translate(146,43)"/>
<path d="M0 0 C2 1 2 1 2 1 Z " fill="#069B45" transform="translate(52,4)"/>
<path d="" fill="#069B45" transform="translate(0,0)"/>
<path d="" fill="#069B45" transform="translate(0,0)"/>
<path d="" fill="#069B45" transform="translate(0,0)"/>
<path d="" fill="#069B45" transform="translate(0,0)"/>
<path d="" fill="#069B45" transform="translate(0,0)"/>
<path d="" fill="#069B45" transform="translate(0,0)"/>
<path d="" fill="#069B45" transform="translate(0,0)"/>
<path d="" fill="#069B45" transform="translate(0,0)"/>
<path d="" fill="#069B45" transform="translate(0,0)"/>
<path d="" fill="#069B45" transform="translate(0,0)"/>
<path d="" fill="#069B45" transform="translate(0,0)"/>
<path d="" fill="#069B45" transform="translate(0,0)"/>
<path d="" fill="#069B45" transform="translate(0,0)"/>
<path d="" fill="#069B45" transform="translate(0,0)"/>
<path d="" fill="#069B45" transform="translate(0,0)"/>
<path d="" fill="#069B45" transform="translate(0,0)"/>
<path d="" fill="#069B45" transform="translate(0,0)"/>
<path d="" fill="#069B45" transform="translate(0,0)"/>
<path d="" fill="#069B45" transform="translate(0,0)"/>
<path d="" fill="#069B45" transform="translate(0,0)"/>
<path d="" fill="#069B45" transform="translate(0,0)"/>
<path d="" fill="#069B45" transform="translate(0,0)"/>
<path d="" fill="#069B45" transform="translate(0,0)"/>
<path d="" fill="#069B45" transform="translate(0,0)"/>
<path d="" fill="#069B45" transform="translate(0,0)"/>
<path d="" fill="#069B45" transform="translate(0,0)"/>
<path d="" fill="#069B45" transform="translate(0,0)"/>
<path d="" fill="#069B45" transform="translate(0,0)"/>
<path d="" fill="#069B45" transform="translate(0,0)"/>
<path d="" fill="#069B45" transform="translate(0,0)"/>
<path d="" fill="#069B45" transform="translate(0,0)"/>
<path d="" fill="#069B45" transform="translate(0,0)"/>
<path d="" fill="#069B45" transform="translate(0,0)"/>
<path d="" fill="#069B45" transform="translate(0,0)"/>
<path d="" fill="#069B45" transform="translate(0,0)"/>
<path d="" fill="#069B45" transform="translate(0,0)"/>
<path d="" fill="#069B45" transform="translate(0,0)"/>
<path d="" fill="#069B45" transform="translate(0,0)"/>
<path d="" fill="#069B45" transform="translate(0,0)"/>
<path d="" fill="#069B45" transform="translate(0,0)"/>
<path d="" fill="#069B45" transform="translate(0,0)"/>
<path d="" fill="#069B45" transform="translate(0,0)"/>
<path d="" fill="#069B45" transform="translate(0,0)"/>
<path d="" fill="#069B45" transform="translate(0,0)"/>
<path d="" fill="#069B45" transform="translate(0,0)"/>
<path d="" fill="#069B45" transform="translate(0,0)"/>
<path d="" fill="#069B45" transform="translate(0,0)"/>
<path d="" fill="#069B45" transform="translate(0,0)"/>
<path d="" fill="#069B45" transform="translate(0,0)"/>
<path d="" fill="#069B45" transform="translate(0,0)"/>
<path d="" fill="#069B45" transform="translate(0,0)"/>
<path d="" fill="#069B45" transform="translate(0,0)"/>
<path d="" fill="#069B45" transform="translate(0,0)"/>
<path d="" fill="#069B45" transform="translate(0,0)"/>
<path d="" fill="#069B45" transform="translate(0,0)"/>
<path d="" fill="#069B45" transform="translate(0,0)"/>
<path d="" fill="#069B45" transform="translate(0,0)"/>
<path d="" fill="#069B45" transform="translate(0,0)"/>
<path d="" fill="#069B45" transform="translate(0,0)"/>
<path d="" fill="#069B45" transform="translate(0,0)"/>
<path d="" fill="#069B45" transform="translate(0,0)"/>
<path d="" fill="#069B45" transform="translate(0,0)"/>
<path d="" fill="#069B45" transform="translate(0,0)"/>
<path d="" fill="#069B45" transform="translate(0,0)"/>
<path d="" fill="#069B45" transform="translate(0,0)"/>
<path d="" fill="#069B45" transform="translate(0,0)"/>
<path d="" fill="#069B45" transform="translate(0,0)"/>
<path d="" fill="#069B45" transform="translate(0,0)"/>
</svg>
